<?xml version="1.0" encoding="utf-8"?>
<!-- Generator: Adobe Illustrator 24.3.0, SVG Export Plug-In . SVG Version: 6.00 Build 0)  -->
<svg version="1.1" id="Layer_1" xmlns="http://www.w3.org/2000/svg" xmlns:xlink="http://www.w3.org/1999/xlink" x="0px" y="0px"
	 viewBox="0 0 273.4 293.4" style="enable-background:new 0 0 273.4 293.4;" xml:space="preserve">
<style type="text/css">
	.st0{fill:#4F2B10;}
	.st1{fill:#2D1514;}
	.st2{fill:#45201D;}
</style>
<g id="Layer_1-2">
	<path class="st0" d="M78.4,131.1"/>
	<path class="st0" d="M161.5,131.1"/>
	<path class="st1" d="M96.1,119.1h-0.2l-35.4-1.2c-2.5-0.1-4.4-2.2-4.3-4.7c0.1-2.5,2.2-4.4,4.7-4.3l0,0l35.4,1.3
		c2.5,0,4.5,2.1,4.4,4.6C100.6,117.2,98.6,119.2,96.1,119.1L96.1,119.1L96.1,119.1z"/>
	<path class="st1" d="M141.1,120.4c-2.5,0-4.5-1.9-4.6-4.4c0-2.5,1.9-4.5,4.4-4.6l35.4-1.3c2.5-0.1,4.6,1.9,4.7,4.3
		s-1.9,4.6-4.3,4.7l-35.4,1.3L141.1,120.4z"/>
	<path class="st2" d="M58.7,114"/>
</g>
</svg>
