<?xml version="1.0" encoding="utf-8"?>
<!-- Generator: Adobe Illustrator 24.3.0, SVG Export Plug-In . SVG Version: 6.00 Build 0)  -->
<svg version="1.1" id="Layer_1" xmlns="http://www.w3.org/2000/svg" xmlns:xlink="http://www.w3.org/1999/xlink" x="0px" y="0px"
	 viewBox="0 0 244.7 293.4" style="enable-background:new 0 0 244.7 293.4;" xml:space="preserve">
<style type="text/css">
	.st0{fill:#FFBE9C;}
	.st1{fill:#45201D;}
	.st2{fill:#9F2D5B;}
	.st3{fill:#2D1514;}
	.st4{fill:#652A44;}
	.st5{fill:#FFA082;}
</style>
<g id="Layer_1-2">
	<path class="st0" d="M210.5,47l-21,207.4l-87.2,11.3c-12.2,1.6-24.7,0.2-36.2-4.2c-21-8.2-36.8-25.4-45.3-47.6
		c-4-10.7-6.2-22-6.3-33.4v-102C14.4,61.1,28.6,47,46.1,47H210.5z"/>
	<path class="st0" d="M166.4,179.1c0-23.7,16.1-42.9,36-42.9s36,19.2,36,42.9s-16.1,39.9-36,39.9S166.4,202.8,166.4,179.1z"/>
	<path class="st1" d="M156.4,60.9c0,0,21.5,26.8,24.8,29.6c0.7,0.6,1.3,1.2,1.9,1.8c9.1,9.9,14.9,22.3,16.8,35.5l3.2,50.9
		c0.1,2,1.8,3.6,3.8,3.5c1.2-0.1,2.3-0.7,2.9-1.7c2.4-4,5.5-7.6,9-10.8c8.3-6.7,12.1-10.1,17.6-4.5S270.8,28.7,174.5,24l-14.7-6.3
		L156.4,60.9z"/>
	<path class="st2" d="M200.5,266.7C175.4,296,74.7,294.3,59.4,292.5c-12.4-1.4-12.4-4.8-10.9-10.4c0.3-1.3,0.8-2.7,1.1-4.3
		c0.5-2.2,0-4.5-1.4-6.3l-0.1-0.1l-0.2-0.3l0,0c-2.9-3.8-8.5-6.6-9.8-12.1c-2-8.2,0-17,0-17c13.4,11.6,20,20.5,62.4,19.2
		c53.1-3.4,91.7-47.4,91.7-47.4l15.7,1.2c15.7,1.2-5.6,12.9-5.6,12.9s10.3,4.1,11.9,13.5S200.5,266.7,200.5,266.7z"/>
	<path class="st1" d="M156.7,61c0,0-25-15.7-85,7.5c-8.4,3.2-22.8,16.7-32,28.1c-4.2,5.2-7.5,11.1-9.8,17.4l-13.1,36.1
		c-0.6,1.3-2.1,2-3.5,1.4c-0.8-0.3-1.3-1-1.5-1.8l-2.6-6.2C3.1,129.2,0,113.9,0,98.4C0,80.5,2.1,62,4.6,52.8
		c0.2-0.6,0.3-1.2,0.5-1.7C9.7,36.1,19.8,23.6,33.5,16l1.5-0.8c34.1-18.7,75-20.2,110.4-4l15,6.8L156.7,61z"/>
	<path class="st3" d="M156.4,60.9c0,0-49.7-28.3-93.1-9.4c-11.1,4.8-20.1,13.3-25.5,24.2c-4.3,8.7-15.9,42.2-17.1,63.6
		C20.7,139.2,60.7,42.1,156.4,60.9z"/>
	<path class="st4" d="M112.3,273.4c0,0,3,4.4-42.4,12c-5.8,1-21.4-3.2-21.4-3.2c0.3-1.3,0.8-2.7,1.1-4.3c0.5-2.2,0-4.5-1.4-6.3
		C57.9,275.9,68.9,280.5,112.3,273.4z"/>
</g>
<g id="Layer_2_1_">
	<path class="st5" d="M192.2,213.9l10.1-10.1c0,0,18.5,10.5,28.1,1.1c0,0-7.7,9.9-16.8,12.3C205.5,219.4,192.2,213.9,192.2,213.9z"
		/>
</g>
<path class="st1" d="M177.4,48.9c0.1,2.5-1.8,4.6-4.3,4.7c-2.5,0.1-4.6-1.8-4.7-4.3l0,0l-2.3-35.3c-0.2-2.5,1.6-4.7,4.1-4.9
	c2.5-0.2,4.7,1.6,4.9,4.1c0,0.1,0,0.1,0,0.2l2.3,35.3V48.9z"/>
<path class="st1" d="M172.7,54.1c-1,2.3-3.7,3.3-6,2.2c-2.3-1-3.3-3.7-2.2-6l14-32.5c1-2.3,3.6-3.3,5.9-2.4c2.3,1,3.3,3.6,2.4,5.9
	l-14,32.6L172.7,54.1z"/>
</svg>
