<?xml version="1.0" encoding="utf-8"?>
<!-- Generator: Adobe Illustrator 24.3.0, SVG Export Plug-In . SVG Version: 6.00 Build 0)  -->
<svg version="1.1" id="Layer_1" xmlns="http://www.w3.org/2000/svg" xmlns:xlink="http://www.w3.org/1999/xlink" x="0px" y="0px"
	 viewBox="0 0 273.4 293.4" style="enable-background:new 0 0 273.4 293.4;" xml:space="preserve">
<style type="text/css">
	.st0{fill:#FFBE9C;}
	.st1{fill:#45201D;}
	.st2{fill:#4F2B10;}
	.st3{fill:#FFFFFF;}
	.st4{opacity:0.8;fill:#FFA082;enable-background:new    ;}
	.st5{fill:#2D1514;}
	.st6{fill:#9F2D5B;}
	.st7{fill:#F87A6F;}
	.st8{fill:#652A44;}
	.st9{fill:#FFA082;}
</style>
<g id="Layer_1-2">
	<path class="st0" d="M239.2,47l-21,207.4L131,265.7c-12.2,1.6-24.7,0.2-36.2-4.2c-21-8.2-36.8-25.4-45.4-47.6
		c-4-10.7-6.2-22-6.4-33.4v-102C43.1,61.1,57.4,47,74.8,47H239.2z"/>
	<path class="st0" d="M195.2,179.1c0-23.7,16.1-42.9,36-42.9s36,19.2,36,42.9s-16.1,39.9-36,39.9S195.2,202.8,195.2,179.1z"/>
	<path class="st1" d="M185.2,60.9c0,0,21.5,26.8,24.8,29.6c0.7,0.6,1.3,1.2,1.9,1.8c9.1,9.9,14.9,22.3,16.8,35.5l3.2,50.9
		c0.1,2,1.8,3.6,3.8,3.5c1.2-0.1,2.3-0.7,2.9-1.7c2.4-4,5.5-7.6,9-10.8c8.3-6.7,12.1-10.1,17.6-4.5S299.5,28.7,203.3,24l-14.7-6.3
		L185.2,60.9z"/>
	<circle class="st2" cx="78.4" cy="145.7" r="14.6"/>
	<circle class="st3" cx="85.1" cy="140.9" r="4.8"/>
	<circle class="st2" cx="161.5" cy="145.7" r="14.6"/>
	<path class="st4" d="M106.2,180.3h18.4c2.6,0,4.7,2.1,4.7,4.7l0,0c0,4.8-3.9,8.7-8.7,8.7l0,0h-10.4c-4.8,0-8.7-3.9-8.7-8.7l0,0l0,0
		C101.4,182.4,103.6,180.3,106.2,180.3L106.2,180.3z"/>
	<path class="st5" d="M96.1,119.1h-0.2l-35.4-1.2c-2.5-0.1-4.4-2.2-4.3-4.7c0.1-2.5,2.2-4.4,4.7-4.3l0,0l35.4,1.3
		c2.5,0,4.5,2.1,4.4,4.6C100.6,117.2,98.6,119.2,96.1,119.1L96.1,119.1L96.1,119.1z"/>
	<path class="st5" d="M141.1,120.4c-2.5,0-4.5-1.9-4.6-4.4c0-2.5,1.9-4.5,4.4-4.6l35.4-1.3c2.5-0.1,4.6,1.9,4.7,4.3
		s-1.9,4.6-4.3,4.7l-35.4,1.3L141.1,120.4z"/>
	<circle class="st3" cx="168.6" cy="140.9" r="4.8"/>
	<path class="st6" d="M229.3,266.7c-25.1,29.3-125.8,27.6-141.1,25.8c-12.4-1.4-12.4-4.8-10.9-10.4c0.3-1.3,0.8-2.7,1.1-4.3
		c0.5-2.2,0-4.5-1.4-6.3l-0.1-0.1l-0.2-0.3l0,0c-2.9-3.8-8.5-6.6-9.8-12.1c-2-8.2,0-17,0-17c13.4,11.6,20,20.5,62.4,19.2
		c53.1-3.4,91.7-47.4,91.7-47.4l15.7,1.2c15.7,1.2-5.6,12.9-5.6,12.9s10.3,4.1,11.9,13.5S229.3,266.7,229.3,266.7z"/>
	<path class="st7" d="M144.5,212.7c0,7-10.8,12.7-24.2,12.7s-24.2-5.7-24.2-12.7"/>
	<path class="st1" d="M185.4,61c0,0-25-15.7-85,7.5c-8.4,3.2-22.8,16.7-32,28.1c-4.2,5.2-7.5,11.1-9.8,17.4l-13.1,36.1
		c-0.6,1.3-2.1,2-3.5,1.4c-0.8-0.3-1.3-1-1.5-1.8l-2.6-6.2c-6.1-14.3-9.2-29.6-9.1-45.1c0-17.8,2.1-36.3,4.6-45.6
		c0.2-0.6,0.3-1.2,0.5-1.7C38.5,36.1,48.6,23.6,62.2,16l1.5-0.8c34.1-18.7,75-20.2,110.4-4l15,6.8L185.4,61z"/>
	<path class="st5" d="M185.2,60.9c0,0-49.7-28.3-93.1-9.4C81,56.3,72,64.8,66.6,75.7c-4.3,8.7-15.9,42.2-17.1,63.6
		C49.5,139.2,89.5,42.1,185.2,60.9z"/>
	<path class="st8" d="M141.1,273.4c0,0,3,4.4-42.4,12c-5.8,1-21.4-3.2-21.4-3.2c0.3-1.3,0.8-2.7,1.1-4.3c0.5-2.2,0-4.5-1.4-6.3
		C86.7,275.9,97.6,280.4,141.1,273.4z"/>
</g>
<g id="Layer_2_1_">
	<path class="st9" d="M221,213.9l10.1-10.1c0,0,18.5,10.5,28.1,1.1c0,0-7.7,9.9-16.7,12.3C234.2,219.4,221,213.9,221,213.9z"/>
</g>
<path class="st1" d="M206.2,48.9c0.1,2.5-1.8,4.6-4.3,4.7c-2.5,0.1-4.6-1.8-4.7-4.3l-2.3-35.3c-0.2-2.5,1.7-4.6,4.2-4.8
	c2.5-0.2,4.6,1.7,4.8,4.2l2.3,35.3V48.9z"/>
<path class="st1" d="M201.5,54.1c-1,2.3-3.7,3.3-6,2.2c-2.3-1-3.3-3.7-2.2-6l14-32.5c1-2.3,3.6-3.3,5.9-2.4c2.3,1,3.3,3.6,2.4,5.9
	l-14,32.6L201.5,54.1z"/>
</svg>
