<svg id="Layer_1" data-name="Layer 1" xmlns="http://www.w3.org/2000/svg" viewBox="0 0 273.44 293.36"><defs><style>.cls-1{fill:#ffbe9c;}.cls-2{fill:#45201d;}.cls-3{fill:#4f2b10;}.cls-4{fill:#fff;}.cls-10,.cls-5{fill:#ffa082;}.cls-5{opacity:0.8;isolation:isolate;}.cls-6{fill:#2d1514;}.cls-7{fill:#9f2d5b;}.cls-8{fill:#f87a6f;}.cls-9{fill:#652a44;}</style></defs><g id="Layer_1-2" data-name="Layer 1"><path class="cls-1" d="M210.46,47l-21,207.39-87.27,11.32A73.9,73.9,0,0,1,66,261.53c-21-8.16-36.82-25.38-45.35-47.61a99.08,99.08,0,0,1-6.35-33.36v-102A31.69,31.69,0,0,1,46.06,47Z" transform="translate(28.77 -0.01)"/><path class="cls-1" d="M166.43,179.1c0-23.71,16.1-42.93,36-42.93s36,19.22,36,42.93-16.1,39.93-36,39.93S166.43,202.81,166.43,179.1Z" transform="translate(28.77 -0.01)"/><path class="cls-2" d="M156.41,60.88S177.9,87.69,181.2,90.49a21.65,21.65,0,0,1,1.86,1.85,66,66,0,0,1,16.76,35.54L203,178.8a3.66,3.66,0,0,0,6.75,1.77,46,46,0,0,1,9-10.75c8.27-6.7,12.12-10.06,17.63-4.47S270.75,28.68,174.48,24l-14.72-6.34Z" transform="translate(28.77 -0.01)"/><circle class="cls-3" cx="78.38" cy="145.68" r="14.59"/><circle class="cls-4" cx="85.11" cy="140.92" r="4.76"/><circle class="cls-3" cx="161.54" cy="145.68" r="14.59"/><path class="cls-5" d="M77.4,180.27H95.85a4.73,4.73,0,0,1,4.73,4.73h0a8.74,8.74,0,0,1-8.74,8.74H81.42A8.74,8.74,0,0,1,72.68,185h0a4.73,4.73,0,0,1,4.73-4.73Z" transform="translate(28.77 -0.01)"/><path class="cls-6" d="M67.31,119.12h-.17l-35.39-1.24a4.5,4.5,0,1,1,.32-9l35.39,1.26a4.5,4.5,0,1,1-.15,9Z" transform="translate(28.77 -0.01)"/><path class="cls-6" d="M112.34,120.38a4.5,4.5,0,0,1-.15-9l35.39-1.25a4.5,4.5,0,0,1,.32,9l-35.39,1.26Z" transform="translate(28.77 -0.01)"/><circle class="cls-4" cx="168.56" cy="140.92" r="4.76"/><path class="cls-7" d="M200.52,266.72C175.45,296.06,74.74,294.3,59.44,292.54c-12.39-1.43-12.38-4.78-10.94-10.37.34-1.31.76-2.74,1.11-4.3a7.27,7.27,0,0,0-1.36-6.25l-.09-.11-.2-.27h0c-2.94-3.76-8.48-6.63-9.81-12.13-2-8.22,0-17,0-17,13.36,11.58,20,20.48,62.45,19.16,53.11-3.39,91.71-47.39,91.71-47.39l15.67,1.2c15.67,1.21-5.58,12.92-5.58,12.92s10.28,4.1,11.86,13.5S200.52,266.72,200.52,266.72Z" transform="translate(28.77 -0.01)"/><path class="cls-8" d="M115.7,212.69c0,7-10.83,12.69-24.2,12.69s-24.2-5.68-24.2-12.69" transform="translate(28.77 -0.01)"/><path class="cls-5" d="M38.36,177.24l-1.09,1.49a12,12,0,0,1-16.76,2.65l-6.3-4.58V147.47A11.8,11.8,0,0,1,21,149.74l14.77,10.74A12,12,0,0,1,38.36,177.24Z" transform="translate(28.77 -0.01)"/><rect class="cls-5" x="139.37" y="150.35" width="42.26" height="25.84" rx="12" transform="translate(-36.55 125.58) rotate(-36.02)"/><path class="cls-2" d="M156.67,61s-25-15.74-85,7.49c-8.38,3.24-22.82,16.71-32,28.13A60.69,60.69,0,0,0,29.89,114L16.76,150.1a2.64,2.64,0,0,1-5-.42l-2.64-6.21A114.47,114.47,0,0,1,0,98.35C.05,80.52,2.09,62,4.62,52.79c.16-.58.33-1.16.5-1.73A60.34,60.34,0,0,1,33.47,16L35,15.16a123.29,123.29,0,0,1,110.43-4l15,6.78Z" transform="translate(28.77 -0.01)"/><path class="cls-6" d="M156.41,60.88s-49.7-28.28-93.08-9.39A50.7,50.7,0,0,0,37.87,75.68c-4.25,8.7-15.92,42.17-17.14,63.56C20.73,139.21,60.72,42.07,156.41,60.88Z" transform="translate(28.77 -0.01)"/><path class="cls-9" d="M112.35,273.37s3,4.37-42.43,12c-5.77,1-21.42-3.2-21.42-3.2.34-1.31.76-2.74,1.11-4.3a7.27,7.27,0,0,0-1.36-6.25C57.89,275.94,68.88,280.46,112.35,273.37Z" transform="translate(28.77 -0.01)"/></g><g id="Layer_2" data-name="Layer 2"><path class="cls-10" d="M192.21,213.88l10.08-10.07s18.52,10.53,28.06,1.14c0,0-7.7,9.87-16.75,12.28C205.47,219.38,192.21,213.88,192.21,213.88Z" transform="translate(28.77 -0.01)"/></g><path class="cls-6" d="M-28.77,44.56,6.62,43.31" transform="translate(28.77 -0.01)"/><path class="cls-2" d="M177.39,48.87a4.5,4.5,0,0,1-9,.41l-2.27-35.34a4.5,4.5,0,1,1,9-.57l2.27,35.33Z" transform="translate(28.77 -0.01)"/><path class="cls-2" d="M172.71,54.13a4.5,4.5,0,1,1-8.2-3.71l14-32.53a4.5,4.5,0,0,1,8.28,3.55L172.8,54Z" transform="translate(28.77 -0.01)"/></svg>