<svg id="Page-1" xmlns="http://www.w3.org/2000/svg" xmlns:xlink="http://www.w3.org/1999/xlink" width="199" height="199" viewBox="0 0 199 199">
  <defs>
    <style>
      .cls-1 {
        fill: url(#linear-gradient);
      }
    </style>
    <linearGradient id="linear-gradient" x1="0.5" x2="0.5" y2="1" gradientUnits="objectBoundingBox">
      <stop offset="0" stop-color="#7d4b8f"/>
      <stop offset="1" stop-color="#3f979b"/>
    </linearGradient>
  </defs>
  <g id="_001---Accessibility" data-name="001---Accessibility" transform="translate(0 0)">
    <path id="Shape" class="cls-1" d="M99.5,0A99.5,99.5,0,1,0,199,99.5,99.5,99.5,0,0,0,99.5,0Zm0,192.367A92.867,92.867,0,1,1,192.367,99.5,92.867,92.867,0,0,1,99.5,192.367Z" transform="translate(0 0)"/>
    <path id="Shape-2" data-name="Shape" class="cls-1" d="M90.233,4a86.233,86.233,0,1,0,86.233,86.233A86.233,86.233,0,0,0,90.233,4Zm0,165.833a79.6,79.6,0,1,1,79.6-79.6A79.6,79.6,0,0,1,90.233,169.833Z" transform="translate(9.267 9.267)"/>
    <path id="Shape-3" data-name="Shape" class="cls-1" d="M43.9,48.8A19.9,19.9,0,1,0,24,28.9,19.9,19.9,0,0,0,43.9,48.8Zm0-33.167A13.267,13.267,0,1,1,30.633,28.9,13.267,13.267,0,0,1,43.9,15.633Z" transform="translate(55.6 20.85)"/>
    <path id="Shape-4" data-name="Shape" class="cls-1" d="M115.951,22.031H115.9L81.073,25.158q-1.781.163-3.565.163h-15.5q-1.781,0-3.559-.159L23.568,22.031a9.951,9.951,0,0,0-1.559,19.84l28.149,2.554a3.317,3.317,0,0,1,3.018,3.3v7.628a13.232,13.232,0,0,1-.915,4.846L36.3,100.845A9.953,9.953,0,1,0,54.5,108.9l15.21-37.19L85.066,109a9.95,9.95,0,0,0,18.208-8.016L87.258,60.189a13.26,13.26,0,0,1-.915-4.839V47.722a3.317,3.317,0,0,1,3.018-3.3l28.1-2.551a9.951,9.951,0,1,0-1.512-19.844Zm.959,13.24L88.761,37.825a9.9,9.9,0,0,0-9.051,9.9v7.628a19.851,19.851,0,0,0,1.376,7.273l16.073,40.924a3.317,3.317,0,1,1-6,2.829L75.839,69.19a6.577,6.577,0,0,0-12.159,0L48.4,106.281a3.317,3.317,0,1,1-5.97-2.872L58.45,62.613a19.825,19.825,0,0,0,1.36-7.263V47.722a9.9,9.9,0,0,0-9.051-9.907L22.563,35.271a3.325,3.325,0,1,1,.468-6.633l34.825,3.128q2.07.186,4.149.186H77.5q2.08,0,4.149-.186l34.808-3.128a3.324,3.324,0,1,1,.451,6.633Z" transform="translate(29.74 50.962)"/>
  </g>
</svg>
