<svg xmlns="http://www.w3.org/2000/svg" xmlns:xlink="http://www.w3.org/1999/xlink" width="209.521" height="201.123" viewBox="0 0 209.521 201.123">
  <defs>
    <style>
      .cls-1 {
        fill: url(#linear-gradient);
      }
    </style>
    <linearGradient id="linear-gradient" x1="0.5" x2="0.5" y2="1" gradientUnits="objectBoundingBox">
      <stop offset="0" stop-color="#be71da"/>
      <stop offset="1" stop-color="#5ce5eb"/>
    </linearGradient>
  </defs>
  <g id="XMLID_806_" transform="translate(0 -10.262)">
    <g id="XMLID_386_" transform="translate(0 10.262)">
      <path id="XMLID_389_" class="cls-1" d="M209.117,120.5a82.6,82.6,0,0,0-64.228-72.426v-10.4a13.913,13.913,0,0,0-3.358-27.415H112.067a13.913,13.913,0,0,0-3.359,27.415V48.1a82.17,82.17,0,0,0-40.3,22.167,83.058,83.058,0,0,0-6.948,7.885c-.1-.008-.205-.016-.31-.016H31.988a4.092,4.092,0,1,0,0,8.185h23.9a82.037,82.037,0,0,0-7.261,15.729H4.092a4.092,4.092,0,1,0,0,8.185H46.318a83.206,83.206,0,0,0-2.031,15.729h-18.1a4.092,4.092,0,1,0,0,8.185H44.418a83.083,83.083,0,0,0,2.555,15.729H20.461a4.092,4.092,0,1,0,0,8.185H49.584a82.653,82.653,0,0,0,69.105,52.918q4.055.4,8.11.4a82.863,82.863,0,0,0,45.112-13.333,4.092,4.092,0,1,0-4.466-6.859,74.479,74.479,0,1,1,21.936-21.964,4.092,4.092,0,1,0,6.864,4.457A82.927,82.927,0,0,0,209.117,120.5ZM106.337,24.176a5.735,5.735,0,0,1,5.729-5.729h29.464a5.729,5.729,0,0,1,0,11.458H112.067A5.736,5.736,0,0,1,106.337,24.176ZM116.893,46.7V38.09H136.7v8.593A83.382,83.382,0,0,0,116.893,46.7Z" transform="translate(0 -10.262)"/>
      <path id="XMLID_391_" class="cls-1" d="M439.862,425.5a4.094,4.094,0,1,0,2.893,1.2A4.114,4.114,0,0,0,439.862,425.5Z" transform="translate(-257.441 -255.573)"/>
      <path id="XMLID_394_" class="cls-1" d="M218.355,144.609a63.483,63.483,0,1,0,63.483,63.483A63.555,63.555,0,0,0,218.355,144.609Zm0,118.782a55.3,55.3,0,1,1,55.3-55.3A55.361,55.361,0,0,1,218.355,263.391Z" transform="translate(-91.494 -89.63)"/>
      <path id="XMLID_397_" class="cls-1" d="M304.6,220.61l-20.269,20.269a12.684,12.684,0,0,0-11.234,0l-9.071-9.071a4.092,4.092,0,0,0-5.788,5.787l9.071,9.071a12.716,12.716,0,1,0,22.81,0l19.674-19.674h0l.595-.595a4.092,4.092,0,0,0-5.787-5.787Zm-25.886,36.205a4.532,4.532,0,1,1,4.532-4.532A4.537,4.537,0,0,1,278.711,256.815Z" transform="translate(-151.85 -133.822)"/>
      <path id="XMLID_398_" class="cls-1" d="M405.539,289.86h-3.791a4.092,4.092,0,1,0,0,8.185h3.791a4.092,4.092,0,1,0,0-8.185Z" transform="translate(-234.924 -175.441)"/>
      <path id="XMLID_399_" class="cls-1" d="M200.965,289.616h-3.791a4.092,4.092,0,1,0,0,8.185h3.791a4.092,4.092,0,1,0,0-8.185Z" transform="translate(-114.067 -175.297)"/>
      <path id="XMLID_400_" class="cls-1" d="M304.215,194.795a4.092,4.092,0,0,0,4.092-4.092v-3.791a4.092,4.092,0,1,0-8.185,0V190.7A4.092,4.092,0,0,0,304.215,194.795Z" transform="translate(-177.304 -112.204)"/>
      <path id="XMLID_424_" class="cls-1" d="M303.971,387.393a4.092,4.092,0,0,0-4.092,4.092v3.791a4.092,4.092,0,1,0,8.185,0v-3.791A4.092,4.092,0,0,0,303.971,387.393Z" transform="translate(-177.16 -233.061)"/>
      <path id="XMLID_425_" class="cls-1" d="M4.092,351.44a4.092,4.092,0,1,0,2.893,6.986,4.092,4.092,0,0,0-2.893-6.986Z" transform="translate(0 -211.82)"/>
    </g>
  </g>
</svg>
