<?xml version="1.0" encoding="utf-8"?>
<!-- Generator: Adobe Illustrator 24.3.0, SVG Export Plug-In . SVG Version: 6.00 Build 0)  -->
<svg version="1.1" id="Layer_1" xmlns="http://www.w3.org/2000/svg" xmlns:xlink="http://www.w3.org/1999/xlink" x="0px" y="0px"
	 viewBox="0 0 263 210" style="enable-background:new 0 0 263 210;" xml:space="preserve">
<style type="text/css">
	.st0{fill:url(#XMLID_2_);}
	.st1{fill:url(#XMLID_3_);}
	.st2{fill:url(#XMLID_4_);}
	.st3{fill:url(#XMLID_5_);}
	.st4{fill:url(#XMLID_6_);}
	.st5{fill:url(#XMLID_7_);}
	.st6{fill:url(#XMLID_8_);}
	.st7{fill:url(#XMLID_9_);}
	.st8{fill:url(#XMLID_10_);}
</style>
<g id="Group_58" transform="translate(-714 -1123.365)">
	<g id="XMLID_806_" transform="translate(714 1113.103)">
		<g id="XMLID_386_" transform="translate(0 10.262)">
			
				<linearGradient id="XMLID_2_" gradientUnits="userSpaceOnUse" x1="-849.4059" y1="662.9144" x2="-849.4059" y2="661.9144" gradientTransform="matrix(209.5216 0 0 -201.122 178077.4063 133331.125)">
				<stop  offset="0" style="stop-color:#7D4B8F"/>
				<stop  offset="1" style="stop-color:#3F979B"/>
			</linearGradient>
			<path id="XMLID_389_" class="st0" d="M212.9,114.7c-3.5-35.5-29.4-64.7-64.2-72.4V31.9c7.5-1.9,12-9.4,10.1-16.9
				c-1.5-6.2-7.1-10.6-13.5-10.6h-29.5c-7.7,0-13.9,6.2-13.9,13.9c0,6.4,4.4,12,10.6,13.5v10.4c-15.3,3.4-29.3,11.1-40.3,22.2
				c-2.5,2.5-4.8,5.1-6.9,7.9c-0.1,0-0.2,0-0.3,0H35.8c-2.3,0-4.1,1.8-4.1,4.1s1.8,4.1,4.1,4.1h23.9c-3,5-5.4,10.2-7.3,15.7H7.9
				c-2.3,0-4.1,1.8-4.1,4.1s1.8,4.1,4.1,4.1h42.2c-1.2,5.2-1.9,10.4-2,15.7H30c-2.3,0-4.1,1.8-4.1,4.1s1.8,4.1,4.1,4.1l0,0h18.2
				c0.3,5.3,1.2,10.6,2.6,15.7H24.3c-2.3,0-4.1,1.8-4.1,4.1s1.8,4.1,4.1,4.1h29.1c11.1,29.3,37.9,49.8,69.1,52.9
				c2.7,0.3,5.4,0.4,8.1,0.4c16,0,31.7-4.6,45.1-13.3c1.9-1.2,2.4-3.8,1.2-5.7c-1.2-1.9-3.8-2.4-5.7-1.2
				c-34.5,22.4-80.6,12.6-103-21.9s-12.6-80.6,21.9-103s80.6-12.6,103,21.9c16,24.6,16,56.4,0.1,81.1c-1.2,1.9-0.7,4.4,1.2,5.7
				c1.9,1.2,4.4,0.7,5.7-1.2l0,0C210.2,152.1,214.8,133.4,212.9,114.7z M110.1,18.4c0-3.2,2.6-5.7,5.7-5.7h29.5
				c3.2,0,5.7,2.6,5.7,5.7s-2.6,5.7-5.7,5.7h-29.5C112.7,24.1,110.1,21.5,110.1,18.4z M120.7,40.9v-8.6h19.8v8.6
				C133.9,40.1,127.3,40.1,120.7,40.9z"/>
			
				<linearGradient id="XMLID_3_" gradientUnits="userSpaceOnUse" x1="-748.7369" y1="613.7737" x2="-748.7369" y2="612.7737" gradientTransform="matrix(8.188 0 0 -8.188 6316.8921 5199.959)">
				<stop  offset="0" style="stop-color:#7D4B8F"/>
				<stop  offset="1" style="stop-color:#3F979B"/>
			</linearGradient>
			<path id="XMLID_391_" class="st1" d="M186.2,174.4c-2.3,0-4.1,1.8-4.1,4.1c0,2.3,1.8,4.1,4.1,4.1c2.3,0,4.1-1.8,4.1-4.1
				c0-1.1-0.4-2.1-1.2-2.9C188.3,174.8,187.3,174.4,186.2,174.4z"/>
			
				<linearGradient id="XMLID_4_" gradientUnits="userSpaceOnUse" x1="-846.7438" y1="661.6964" x2="-846.7438" y2="660.6964" gradientTransform="matrix(126.966 0 0 -126.966 107638.3438 84072.375)">
				<stop  offset="0" style="stop-color:#7D4B8F"/>
				<stop  offset="1" style="stop-color:#3F979B"/>
			</linearGradient>
			<path id="XMLID_394_" class="st2" d="M130.7,59.4c-35.1,0-63.5,28.4-63.5,63.5s28.4,63.5,63.5,63.5s63.5-28.4,63.5-63.5
				C194.1,87.9,165.7,59.5,130.7,59.4z M130.7,178.2c-30.5,0-55.3-24.8-55.3-55.3c0-30.5,24.8-55.3,55.3-55.3
				c30.5,0,55.3,24.8,55.3,55.3C185.9,153.4,161.2,178.2,130.7,178.2z"/>
			
				<linearGradient id="XMLID_5_" gradientUnits="userSpaceOnUse" x1="-837.774" y1="655.801" x2="-837.774" y2="654.801" gradientTransform="matrix(54.5469 0 0 -45.5967 45834.2734 29992.4199)">
				<stop  offset="0" style="stop-color:#7D4B8F"/>
				<stop  offset="1" style="stop-color:#3F979B"/>
			</linearGradient>
			<path id="XMLID_397_" class="st3" d="M156.6,91.2l-20.3,20.3c-3.5-1.7-7.7-1.7-11.2,0l-9.1-9.1c-1.6-1.6-4.2-1.6-5.8,0
				c-1.6,1.6-1.6,4.2,0,5.8l9.1,9.1c-3.1,6.3-0.5,13.9,5.8,17c6.3,3.1,13.9,0.5,17-5.8c1.7-3.5,1.7-7.7,0-11.2l19.7-19.7l0,0
				l0.6-0.6c1.6-1.6,1.6-4.2,0-5.8C160.7,89.6,158.2,89.6,156.6,91.2L156.6,91.2L156.6,91.2z M130.7,127.4c-2.5,0-4.5-2-4.5-4.5
				s2-4.5,4.5-4.5c2.5,0,4.5,2,4.5,4.5C135.2,125.4,133.2,127.4,130.7,127.4L130.7,127.4z"/>
			
				<linearGradient id="XMLID_6_" gradientUnits="userSpaceOnUse" x1="-781.8732" y1="613.7548" x2="-781.8732" y2="612.7548" gradientTransform="matrix(11.976 0 0 -8.185 9536.2207 5142.4419)">
				<stop  offset="0" style="stop-color:#7D4B8F"/>
				<stop  offset="1" style="stop-color:#3F979B"/>
			</linearGradient>
			<path id="XMLID_398_" class="st4" d="M174.4,118.9h-3.8c-2.3,0-4.1,1.8-4.1,4.1s1.8,4.1,4.1,4.1l0,0h3.8c2.3,0,4.1-1.8,4.1-4.1
				S176.7,118.9,174.4,118.9z"/>
			
				<linearGradient id="XMLID_7_" gradientUnits="userSpaceOnUse" x1="-781.8732" y1="613.7548" x2="-781.8732" y2="612.7548" gradientTransform="matrix(11.976 0 0 -8.185 9452.5166 5142.3423)">
				<stop  offset="0" style="stop-color:#7D4B8F"/>
				<stop  offset="1" style="stop-color:#3F979B"/>
			</linearGradient>
			<path id="XMLID_399_" class="st5" d="M90.7,118.8h-3.8c-2.3,0-4.1,1.8-4.1,4.1s1.8,4.1,4.1,4.1l0,0h3.8c2.3,0,4.1-1.8,4.1-4.1
				S93,118.8,90.7,118.8z"/>
			
				<linearGradient id="XMLID_8_" gradientUnits="userSpaceOnUse" x1="-748.6987" y1="629.9749" x2="-748.6987" y2="628.9749" gradientTransform="matrix(8.185 0 0 -11.9755 6258.832 7619.3188)">
				<stop  offset="0" style="stop-color:#7D4B8F"/>
				<stop  offset="1" style="stop-color:#3F979B"/>
			</linearGradient>
			<path id="XMLID_400_" class="st6" d="M130.7,87c2.3,0,4.1-1.8,4.1-4.1l0,0v-3.8c0-2.3-1.8-4.1-4.1-4.1s-4.1,1.8-4.1,4.1v3.8
				C126.6,85.2,128.4,87,130.7,87C130.7,87,130.7,87,130.7,87z"/>
			
				<linearGradient id="XMLID_9_" gradientUnits="userSpaceOnUse" x1="-748.6982" y1="629.9749" x2="-748.6982" y2="628.9749" gradientTransform="matrix(8.185 0 0 -11.9755 6258.707 7703.0352)">
				<stop  offset="0" style="stop-color:#7D4B8F"/>
				<stop  offset="1" style="stop-color:#3F979B"/>
			</linearGradient>
			<path id="XMLID_424_" class="st7" d="M130.6,158.8c-2.3,0-4.1,1.8-4.1,4.1c0,0,0,0,0,0v3.8c0,2.3,1.8,4.1,4.1,4.1
				s4.1-1.8,4.1-4.1v-3.8C134.7,160.6,132.9,158.8,130.6,158.8C130.6,158.8,130.6,158.8,130.6,158.8z"/>
			
				<linearGradient id="XMLID_10_" gradientUnits="userSpaceOnUse" x1="-748.6855" y1="613.7484" x2="-748.6855" y2="612.7484" gradientTransform="matrix(8.184 0 0 -8.184 6135.1362 5166.9731)">
				<stop  offset="0" style="stop-color:#7D4B8F"/>
				<stop  offset="1" style="stop-color:#3F979B"/>
			</linearGradient>
			<path id="XMLID_425_" class="st8" d="M7.9,144.1c-2.3,0-4.1,1.8-4.1,4.1c0,2.3,1.8,4.1,4.1,4.1c1.1,0,2.1-0.4,2.9-1.2
				c1.6-1.6,1.6-4.2,0-5.8C10,144.5,9,144.1,7.9,144.1z"/>
		</g>
	</g>
</g>
</svg>
