<svg xmlns="http://www.w3.org/2000/svg" xmlns:xlink="http://www.w3.org/1999/xlink" width="218.185" height="200.971" viewBox="0 0 218.185 200.971">
  <defs>
    <style>
      .cls-1 {
        fill: url(#linear-gradient);
      }
    </style>
    <linearGradient id="linear-gradient" x1="0.5" x2="0.5" y2="1" gradientUnits="objectBoundingBox">
      <stop offset="0" stop-color="#be71da"/>
      <stop offset="1" stop-color="#5ce5eb"/>
    </linearGradient>
  </defs>
  <g id="responsive" transform="translate(0)">
    <path id="Path_78" data-name="Path 78" class="cls-1" d="M206.35,0H11.833A11.847,11.847,0,0,0,0,11.834V137.064A11.847,11.847,0,0,0,11.833,148.9h15.7a3.227,3.227,0,1,0,0-6.454h-15.7a5.385,5.385,0,0,1-5.378-5.38V11.834a5.385,5.385,0,0,1,5.378-5.378H206.35a5.385,5.385,0,0,1,5.378,5.378V77.575a8,8,0,0,0-1.531-.151h-5.785V17a3.227,3.227,0,0,0-3.228-3.228H171.68a3.228,3.228,0,1,0,0,6.455h26.278v57.2H156.886a8,8,0,0,0-7.988,7.988v43.262H20.226V20.227H156.619a3.228,3.228,0,1,0,0-6.455H17A3.227,3.227,0,0,0,13.771,17V131.9A3.227,3.227,0,0,0,17,135.129H148.9v7.316H42.684a3.228,3.228,0,0,0,0,6.455H79.621l-3.507,28.4H70.361a7.541,7.541,0,0,0-7.532,7.532v8.606a7.54,7.54,0,0,0,7.532,7.531h77.461a7.48,7.48,0,0,0,4.456-1.473,7.942,7.942,0,0,0,4.608,1.473H210.2a8,8,0,0,0,7.987-7.987V133.032a3.228,3.228,0,0,0-6.455,0v46.729H155.353V98.634h56.376v19.29a3.228,3.228,0,0,0,6.455,0V11.834A11.847,11.847,0,0,0,206.35,0ZM148.9,177.388a7.379,7.379,0,0,0-1.075-.087H142.07l-3.507-28.4H148.9ZM86.125,148.9h45.933l3.507,28.4H82.618ZM148.9,193.44a1.076,1.076,0,0,1-1.075,1.075H70.361a1.077,1.077,0,0,1-1.077-1.075v-8.608a1.077,1.077,0,0,1,1.077-1.075h77.461a1.077,1.077,0,0,1,1.077,1.075v8.608Zm62.831-.456a1.534,1.534,0,0,1-1.531,1.531H156.886a1.535,1.535,0,0,1-1.533-1.531v-6.768h56.376ZM155.353,92.178V85.41a1.534,1.534,0,0,1,1.533-1.531H210.2a1.534,1.534,0,0,1,1.531,1.531v6.768Zm0,0"/>
    <path id="Path_79" data-name="Path 79" class="cls-1" d="M75.939,120.708h68.855a3.227,3.227,0,0,0,3.228-3.228V65.84a3.227,3.227,0,0,0-3.228-3.228H75.939a3.227,3.227,0,0,0-3.228,3.228v51.64A3.226,3.226,0,0,0,75.939,120.708Zm3.228-51.64h62.4v45.186h-62.4Zm0,0" transform="translate(-41.726 -35.931)"/>
    <path id="Path_80" data-name="Path 80" class="cls-1" d="M182.45,231.458a3.227,3.227,0,0,0-3.228-3.228H75.939a3.228,3.228,0,0,0,0,6.455H179.222A3.229,3.229,0,0,0,182.45,231.458Zm0,0" transform="translate(-41.726 -130.972)"/>
    <path id="Path_81" data-name="Path 81" class="cls-1" d="M75.939,266.605a3.228,3.228,0,0,0,0,6.455h55.944a3.228,3.228,0,0,0,0-6.455Zm0,0" transform="translate(-41.726 -152.994)"/>
    <path id="Path_82" data-name="Path 82" class="cls-1" d="M335.806,76.75H267.812a3.228,3.228,0,0,0,0,6.455h67.995a3.228,3.228,0,1,0,0-6.455Zm0,0" transform="translate(-151.835 -44.044)"/>
    <path id="Path_83" data-name="Path 83" class="cls-1" d="M338.174,133.5a3.227,3.227,0,0,0-3.228-3.228H267.812a3.228,3.228,0,0,0,0,6.455h67.134A3.227,3.227,0,0,0,338.174,133.5Zm0,0" transform="translate(-151.835 -74.759)"/>
    <path id="Path_84" data-name="Path 84" class="cls-1" d="M288.47,190.25a3.227,3.227,0,0,0,0-6.454H267.812a3.227,3.227,0,0,0,0,6.454Zm0,0" transform="translate(-151.835 -105.473)"/>
    <path id="Path_85" data-name="Path 85" class="cls-1" d="M423.025,248.626A3.227,3.227,0,0,0,419.8,245.4h-37.87a3.227,3.227,0,0,0-3.228,3.228v28.4a3.227,3.227,0,0,0,3.228,3.228H419.8a3.227,3.227,0,0,0,3.228-3.228ZM416.569,273.8H385.155V251.854h31.415Zm0,0" transform="translate(-217.32 -140.824)"/>
    <path id="Path_86" data-name="Path 86" class="cls-1" d="M419.8,339.313h-37.87a3.228,3.228,0,1,0,0,6.455H419.8a3.228,3.228,0,0,0,0-6.455Zm0,0" transform="translate(-217.32 -194.718)"/>
    <path id="Path_87" data-name="Path 87" class="cls-1" d="M423.025,371.829A3.227,3.227,0,0,0,419.8,368.6h-37.87a3.227,3.227,0,1,0,0,6.454H419.8a3.227,3.227,0,0,0,3.228-3.226Zm0,0" transform="translate(-217.32 -211.525)"/>
    <path id="Path_88" data-name="Path 88" class="cls-1" d="M381.927,397.887a3.228,3.228,0,1,0,0,6.455h20.225a3.228,3.228,0,1,0,0-6.455Zm0,0" transform="translate(-217.32 -228.331)"/>
  </g>
</svg>
