<?xml version="1.0" standalone="no"?>
<!DOCTYPE svg PUBLIC "-//W3C//DTD SVG 20010904//EN"
 "http://www.w3.org/TR/2001/REC-SVG-20010904/DTD/svg10.dtd">
<svg version="1.0" xmlns="http://www.w3.org/2000/svg"
 width="212.000000pt" height="212.000000pt" viewBox="0 0 212.000000 212.000000"
 preserveAspectRatio="xMidYMid meet">
<metadata>
Created by potrace 1.11, written by Peter Selinger 2001-2013
</metadata>
<g transform="translate(0.000000,212.000000) scale(0.100000,-0.100000)"
fill="#000000" stroke="none">
<path d="M897 2035 c-32 -7 -60 -13 -62 -14 -3 0 -6 -1 -7 -2 -2 0 -13 -2 -26
-5 -74 -14 -262 -105 -335 -162 -204 -162 -347 -400 -385 -642 -9 -60 -8 -263
2 -320 40 -232 162 -443 346 -601 39 -33 130 -93 185 -121 54 -28 195 -80 195
-73 0 2 12 0 26 -6 49 -18 98 -23 219 -24 142 0 196 7 290 36 130 40 275 118
360 194 17 15 35 30 40 33 10 7 69 73 110 123 11 13 34 47 51 74 112 183 155
341 150 555 -5 194 -56 360 -157 516 -55 83 -172 209 -234 252 -22 15 -42 30
-45 33 -11 13 -139 79 -202 103 -36 15 -97 34 -135 42 -87 20 -310 25 -386 9z"/>
</g>
</svg>
